<svg version="1.2" xmlns="http://www.w3.org/2000/svg" xmlns:xlink="http://www.w3.org/1999/xlink" overflow="visible" preserveAspectRatio="none" viewBox="0 0 22 17" width="22" height="17"><g transform="translate(0, 0)"><g transform="translate(0, 0) rotate(0)"><path d="M22,1.5v14.6c0,0.25 -0.25,0.5 -0.5,0.5c-0.1,0 -0.15,0 -0.25,-0.05c-1.4,-0.75 -3.1,-1.05 -4.75,-1.05c-1.7,0 -4.15,0.65 -5.5,1.5c-1.45,-1.1 -3.55,-1.5 -5.5,-1.5c-1.45,0 -3.4,0.45 -4.75,1.1c-0.1,0 -0.15,0.05 -0.25,0.05c-0.25,0 -0.5,-0.25 -0.5,-0.5v-14.65c1.45,-1.1 3.55,-1.5 5.5,-1.5c1.95,0 4.05,0.4 5.5,1.5c1.45,-1.1 3.55,-1.5 5.5,-1.5c1.17,0 2.39,0.15 3.5,0.5c0.75,0.25 1.4,0.55 2,1zM20,2.5c-1.1,-0.35 -2.3,-0.5 -3.5,-0.5c-1.7,0 -4.15,0.65 -5.5,1.5v11.5c1.35,-0.85 3.8,-1.5 5.5,-1.5c1.2,0 2.4,0.15 3.5,0.5z" style="stroke-width: 0; stroke-linecap: butt; stroke-linejoin: miter; fill: rgb(255, 255, 255);" vector-effect="non-scaling-stroke"/></g><defs><path id="path-157063429671141" d="M22,1.5v14.6c0,0.25 -0.25,0.5 -0.5,0.5c-0.1,0 -0.15,0 -0.25,-0.05c-1.4,-0.75 -3.1,-1.05 -4.75,-1.05c-1.7,0 -4.15,0.65 -5.5,1.5c-1.45,-1.1 -3.55,-1.5 -5.5,-1.5c-1.45,0 -3.4,0.45 -4.75,1.1c-0.1,0 -0.15,0.05 -0.25,0.05c-0.25,0 -0.5,-0.25 -0.5,-0.5v-14.65c1.45,-1.1 3.55,-1.5 5.5,-1.5c1.95,0 4.05,0.4 5.5,1.5c1.45,-1.1 3.55,-1.5 5.5,-1.5c1.17,0 2.39,0.15 3.5,0.5c0.75,0.25 1.4,0.55 2,1zM20,2.5c-1.1,-0.35 -2.3,-0.5 -3.5,-0.5c-1.7,0 -4.15,0.65 -5.5,1.5v11.5c1.35,-0.85 3.8,-1.5 5.5,-1.5c1.2,0 2.4,0.15 3.5,0.5z" vector-effect="non-scaling-stroke"/></defs><g style="transform: rotate(0deg) translate(-833px, -44.5px) translate(833px, 44.5px) rotate(0deg);"><defs><path id="path-157063429669716" d="M20 0.5 C18.89 0.15000000000000036 17.67 0 16.5 0 C14.55 0 12.45 0.40000000000000036 11 1.5 C9.55 0.40000000000000036 7.449999999999999 0 5.5 0 C3.5500000000000007 0 1.4500000000000002 0.40000000000000036 0 1.5 C0 1.5 0 16.15 0 16.15 C0 16.4 0.25 16.65 0.5 16.65 C0.6000000000000001 16.65 0.6499999999999999 16.599999999999998 0.75 16.599999999999998 C2.1 15.95 4.05 15.5 5.5 15.5 C7.449999999999999 15.5 9.55 15.899999999999999 11 17 C12.350000000000001 16.15 14.8 15.5 16.5 15.5 C18.15 15.5 19.85 15.8 21.25 16.55 C21.35 16.6 21.4 16.6 21.5 16.6 C21.75 16.6 22 16.35 22 16.1 C22 16.1 22 1.5 22 1.5 C21.4 1.0499999999999998 20.75 0.75 20 0.5 Z" vector-effect="non-scaling-stroke"/></defs><g transform="translate(0, 0)" style="display: none;"><path d="M20 0.5 C18.89 0.15000000000000036 17.67 0 16.5 0 C14.55 0 12.45 0.40000000000000036 11 1.5 C9.55 0.40000000000000036 7.449999999999999 0 5.5 0 C3.5500000000000007 0 1.4500000000000002 0.40000000000000036 0 1.5 C0 1.5 0 16.15 0 16.15 C0 16.4 0.25 16.65 0.5 16.65 C0.6000000000000001 16.65 0.6499999999999999 16.599999999999998 0.75 16.599999999999998 C2.1 15.95 4.05 15.5 5.5 15.5 C7.449999999999999 15.5 9.55 15.899999999999999 11 17 C12.350000000000001 16.15 14.8 15.5 16.5 15.5 C18.15 15.5 19.85 15.8 21.25 16.55 C21.35 16.6 21.4 16.6 21.5 16.6 C21.75 16.6 22 16.35 22 16.1 C22 16.1 22 1.5 22 1.5 C21.4 1.0499999999999998 20.75 0.75 20 0.5 Z" style="stroke-width: 0; stroke-linecap: butt; stroke-linejoin: miter; fill: rgb(0, 0, 0); stroke: rgb(140, 140, 140);" vector-effect="non-scaling-stroke"/></g></g><g style="transform: rotate(0deg) translate(-833px, -44.5px) translate(844px, 46.5px) rotate(0deg);"><defs><path id="path-157063429669714" d="M9 12 C7.899999999999999 11.649999999999999 6.699999999999999 11.5 5.5 11.5 C3.8000000000000007 11.5 1.3499999999999996 12.149999999999999 0 13 C0 13 0 1.5 0 1.5 C1.3499999999999996 0.6500000000000004 3.8000000000000007 0 5.5 0 C6.699999999999999 0 7.899999999999999 0.15000000000000036 9 0.5 C9 0.5 9 12 9 12 Z" vector-effect="non-scaling-stroke"/></defs><g transform="translate(0, 0)" style="display: none;"><path d="M9 12 C7.899999999999999 11.649999999999999 6.699999999999999 11.5 5.5 11.5 C3.8000000000000007 11.5 1.3499999999999996 12.149999999999999 0 13 C0 13 0 1.5 0 1.5 C1.3499999999999996 0.6500000000000004 3.8000000000000007 0 5.5 0 C6.699999999999999 0 7.899999999999999 0.15000000000000036 9 0.5 C9 0.5 9 12 9 12 Z" style="stroke-width: 0; stroke-linecap: butt; stroke-linejoin: miter; fill: rgb(0, 0, 0); stroke: rgb(140, 140, 140);" vector-effect="non-scaling-stroke"/></g></g></g></svg>