<?xml version="1.0" encoding="utf-8"?>
<!-- Generator: Adobe Illustrator 23.0.6, SVG Export Plug-In . SVG Version: 6.00 Build 0)  -->
<svg version="1.1" id="Layer_1" xmlns="http://www.w3.org/2000/svg" xmlns:xlink="http://www.w3.org/1999/xlink" x="0px" y="0px"
	 viewBox="0 0 16 16" style="enable-background:new 0 0 16 16;" xml:space="preserve">
<style type="text/css">
	.st0{fill:#FFFFFF;}
	.st1{display:none;}
	.st2{display:inline;}
</style>
<g id="be967d5a0b3e87853505820e65f75b53">
	<g transform="rotate(0)translate(-980,-44) translate(980, 44)">
		<g transform="translate(0, 0) rotate(0)">
			<path class="st0" d="M8,8c2.2,0,4-1.8,4-4s-1.8-4-4-4S4,1.8,4,4S5.8,8,8,8z M8,10c-2.7,0-8,1.3-8,4v2h16v-2C16,11.3,10.7,10,8,10
				z"/>
		</g>
		<g>
			<g transform="translate(0, 0)" class="st1">
				<path class="st2" d="M4,8c2.2,0,4-1.8,4-4S6.2,0,4,0S0,1.8,0,4S1.8,8,4,8z"/>
			</g>
		</g>
		<g>
			<g transform="translate(0, 0)" class="st1">
				<path class="st2" d="M8,0C5.3,0,0,1.3,0,4v2h16V4C16,1.3,10.7,0,8,0z"/>
			</g>
		</g>
	</g>
</g>
</svg>
