<?xml version="1.0" encoding="utf-8"?>
<!-- Generator: Adobe Illustrator 23.0.6, SVG Export Plug-In . SVG Version: 6.00 Build 0)  -->
<svg version="1.1" id="Layer_1" xmlns="http://www.w3.org/2000/svg" xmlns:xlink="http://www.w3.org/1999/xlink" x="0px" y="0px"
	 viewBox="0 0 17.5 17.5" style="enable-background:new 0 0 17.5 17.5;" xml:space="preserve">
<style type="text/css">
	.st0{fill:#192231;}
	.st1{display:none;}
	.st2{display:inline;}
</style>
<g id="b5c60629571731fce9cc281413a53da7">
	<g transform="rotate(0)translate(-907,-43) translate(907, 43)">
		<g transform="translate(0, 0)         rotate(0)">
			<path class="st0" d="M12.5,11l5,5L16,17.5l-5-5v-0.8l-0.3-0.3c-1.1,1-2.6,1.6-4.2,1.6C2.9,13,0,10.1,0,6.5S2.9,0,6.5,0
				S13,2.9,13,6.5c0,1.6-0.6,3.1-1.6,4.2l0.3,0.3H12.5z M11,6.5C11,4,9,2,6.5,2S2,4,2,6.5S4,11,6.5,11S11,9,11,6.5z"/>
		</g>
		<g>
			<g transform="translate(0, 0)" class="st1">
				<path class="st2" d="M12.5,11h-0.8l-0.3-0.3c1-1.1,1.6-2.6,1.6-4.2C13,2.9,10.1,0,6.5,0S0,2.9,0,6.5S2.9,13,6.5,13
					c1.6,0,3.1-0.6,4.2-1.6l0.3,0.3v0.8l5,5l1.5-1.5L12.5,11L12.5,11z"/>
			</g>
		</g>
		<g>
			<g transform="translate(0, 0)" class="st1">
				<path class="st2" d="M4.5,9C2,9,0,7,0,4.5S2,0,4.5,0S9,2,9,4.5S7,9,4.5,9z"/>
			</g>
		</g>
	</g>
</g>
</svg>
