<svg version="1.2" xmlns="http://www.w3.org/2000/svg" xmlns:xlink="http://www.w3.org/1999/xlink" overflow="visible" preserveAspectRatio="none" viewBox="0 0 16 22" width="16" height="22"><g transform="translate(0, 0)"><g transform="translate(0, 0) rotate(0)"><path d="M8,3v-3l-4,4l4,4v-3c3.31,0 6,2.69 6,6c0,1.01 -0.25,1.97 -0.7,2.8l1.46,1.46c0.78,-1.23 1.24,-2.69 1.24,-4.26c0,-4.42 -3.58,-8 -8,-8zM8,17c-3.31,0 -6,-2.69 -6,-6c0,-1.01 0.25,-1.97 0.7,-2.8l-1.46,-1.46c-0.78,1.23 -1.24,2.69 -1.24,4.26c0,4.42 3.58,8 8,8v3l4,-4l-4,-4z" style="stroke-width: 0; stroke-linecap: butt; stroke-linejoin: miter; fill: rgb(255, 255, 255);" vector-effect="non-scaling-stroke"/></g><defs><path id="path-157063429670937" d="M8,3v-3l-4,4l4,4v-3c3.31,0 6,2.69 6,6c0,1.01 -0.25,1.97 -0.7,2.8l1.46,1.46c0.78,-1.23 1.24,-2.69 1.24,-4.26c0,-4.42 -3.58,-8 -8,-8zM8,17c-3.31,0 -6,-2.69 -6,-6c0,-1.01 0.25,-1.97 0.7,-2.8l-1.46,-1.46c-0.78,1.23 -1.24,2.69 -1.24,4.26c0,4.42 3.58,8 8,8v3l4,-4l-4,-4z" vector-effect="non-scaling-stroke"/></defs><g style="transform: rotate(0deg) translate(-764px, -41px) translate(768px, 41px) rotate(0deg);"><defs><path id="path-157063429669612" d="M4 2.9999999999999996 C4 2.9999999999999996 4 0 4 0 C4 0 0 4 0 4 C0 4 4 8 4 8 C4 8 4 4.999999999999999 4 4.999999999999999 C7.3100000000000005 4.999999999999999 10 7.6899999999999995 10 10.999999999999998 C10 12.009999999999998 9.75 12.969999999999999 9.3 13.799999999999999 C9.3 13.799999999999999 10.760000000000002 15.26 10.760000000000002 15.26 C11.54 14.029999999999998 12 12.569999999999999 12 10.999999999999998 C12 6.579999999999999 8.420000000000002 2.9999999999999996 4 2.9999999999999996 Z" vector-effect="non-scaling-stroke"/></defs><g transform="translate(0, 0)" style="display: none;"><path d="M4 2.9999999999999996 C4 2.9999999999999996 4 0 4 0 C4 0 0 4 0 4 C0 4 4 8 4 8 C4 8 4 4.999999999999999 4 4.999999999999999 C7.3100000000000005 4.999999999999999 10 7.6899999999999995 10 10.999999999999998 C10 12.009999999999998 9.75 12.969999999999999 9.3 13.799999999999999 C9.3 13.799999999999999 10.760000000000002 15.26 10.760000000000002 15.26 C11.54 14.029999999999998 12 12.569999999999999 12 10.999999999999998 C12 6.579999999999999 8.420000000000002 2.9999999999999996 4 2.9999999999999996 Z" style="stroke-width: 0; stroke-linecap: butt; stroke-linejoin: miter; fill: rgb(0, 0, 0); stroke: rgb(140, 140, 140);" vector-effect="non-scaling-stroke"/></g></g><g style="transform: rotate(0deg) translate(-764px, -41px) translate(764px, 47.74px) rotate(0deg);"><defs><path id="path-157063429669510" d="M8 10.26 C4.6899999999999995 10.26 2 7.57 2 4.26 C2 3.25 2.25 2.289999999999999 2.7 1.459999999999999 C2.7 1.459999999999999 1.2400000000000002 0 1.2400000000000002 0 C0.45999999999999996 1.2300000000000004 0 2.6899999999999995 0 4.26 C0 8.680000000000001 3.58 12.26 8 12.26 C8 12.26 8 15.26 8 15.26 C8 15.26 12 11.26 12 11.26 C12 11.26 8 7.26 8 7.26 C8 7.26 8 10.26 8 10.26 Z" vector-effect="non-scaling-stroke"/></defs><g transform="translate(0, 0)" style="display: none;"><path d="M8 10.26 C4.6899999999999995 10.26 2 7.57 2 4.26 C2 3.25 2.25 2.289999999999999 2.7 1.459999999999999 C2.7 1.459999999999999 1.2400000000000002 0 1.2400000000000002 0 C0.45999999999999996 1.2300000000000004 0 2.6899999999999995 0 4.26 C0 8.680000000000001 3.58 12.26 8 12.26 C8 12.26 8 15.26 8 15.26 C8 15.26 12 11.26 12 11.26 C12 11.26 8 7.26 8 7.26 C8 7.26 8 10.26 8 10.26 Z" style="stroke-width: 0; stroke-linecap: butt; stroke-linejoin: miter; fill: rgb(0, 0, 0); stroke: rgb(140, 140, 140);" vector-effect="non-scaling-stroke"/></g></g></g></svg>